HIERARCHY
ROOT Hips
{
 OFFSET 0.000000 0.000000 0.000000
 CHANNELS 6 Xposition Yposition Zposition Yrotation Xrotation Zrotation
 JOINT Chest
 {
  OFFSET 0.000000 10.383400 0.001500
  CHANNELS 3 Yrotation Xrotation Zrotation
  JOINT Chest2
  {
   OFFSET 0.000000 10.418200 -0.003100
   CHANNELS 3 Yrotation Xrotation Zrotation
   JOINT Chest3
   {
    OFFSET 0.000000 10.375100 0.000000
    CHANNELS 3 Yrotation Xrotation Zrotation
    JOINT Chest4
    {
     OFFSET 0.000000 10.364600 0.000000
     CHANNELS 3 Yrotation Xrotation Zrotation
     JOINT Neck
     {
      OFFSET 0.000000 15.642200 0.000000
      CHANNELS 3 Yrotation Xrotation Zrotation
      JOINT Head
      {
       OFFSET 0.000000 9.697300 -0.006500
       CHANNELS 3 Yrotation Xrotation Zrotation
       End Site
       {
        OFFSET 0.000000 18.492200 -0.003400
       }
      }
     }
     JOINT RightCollar
     {
      OFFSET -3.166800 10.349300 0.000000
      CHANNELS 3 Yrotation Xrotation Zrotation
      JOINT RightShoulder
      {
       OFFSET -14.729700 0.000000 0.000000
       CHANNELS 3 Yrotation Xrotation Zrotation
       JOINT RightElbow
       {
        OFFSET 0.000000 -32.224300 0.000000
        CHANNELS 3 Yrotation Xrotation Zrotation
        JOINT RightWrist
        {
         OFFSET 0.000000 -26.084100 0.000000
         CHANNELS 3 Yrotation Xrotation Zrotation
         End Site
         {
          OFFSET 0.000000 -19.319400 0.000000
         }
        }
       }
      }
     }
     JOINT LeftCollar
     {
      OFFSET 3.166800 10.349300 0.000000
      CHANNELS 3 Yrotation Xrotation Zrotation
      JOINT LeftShoulder
      {
       OFFSET 14.729700 0.000000 0.000000
       CHANNELS 3 Yrotation Xrotation Zrotation
       JOINT LeftElbow
       {
        OFFSET 0.000000 -32.224300 0.000000
        CHANNELS 3 Yrotation Xrotation Zrotation
        JOINT LeftWrist
        {
         OFFSET 0.000000 -26.084100 0.000000
         CHANNELS 3 Yrotation Xrotation Zrotation
         End Site
         {
          OFFSET 0.000000 -19.319400 0.000000
         }
        }
       }
      }
     }
    }
   }
  }
 }
 JOINT RightHip
 {
  OFFSET -8.428900 -0.007500 -0.000800
  CHANNELS 3 Yrotation Xrotation Zrotation
  JOINT RightKnee
  {
   OFFSET 0.000000 -43.834600 0.000700
   CHANNELS 3 Yrotation Xrotation Zrotation
   JOINT RightAnkle
   {
    OFFSET 0.000000 -42.757000 0.001200
    CHANNELS 3 Yrotation Xrotation Zrotation
    JOINT RightToe
    {
     OFFSET 0.000000 -6.946900 15.649300
     CHANNELS 3 Yrotation Xrotation Zrotation
     End Site
     {
      OFFSET 0.000000 -1.580800 6.825800
     }
    }
   }
  }
 }
 JOINT LeftHip
 {
  OFFSET 8.428900 -0.007500 -0.000800
  CHANNELS 3 Yrotation Xrotation Zrotation
  JOINT LeftKnee
  {
   OFFSET 0.000000 -43.834600 0.000700
   CHANNELS 3 Yrotation Xrotation Zrotation
   JOINT LeftAnkle
   {
    OFFSET 0.000000 -42.757000 0.001200
    CHANNELS 3 Yrotation Xrotation Zrotation
    JOINT LeftToe
    {
     OFFSET 0.000000 -6.946900 15.649300
     CHANNELS 3 Yrotation Xrotation Zrotation
     End Site
     {
      OFFSET 0.000000 -1.580800 6.825800
     }
    }
   }
  }
 }
}
MOTION
Frames: 16
Frame Time: 0.008333
-0.158703 126.242423 -6.948920 173.832010 -16.843191 -3.318208 0.106214 13.451111 1.615129 -0.005832 1.102103 0.130839 -0.008260 1.870587 0.222108 0.064355 12.145555 1.459721 -2.936143 12.444158 1.793629 -3.535673 -12.585190 2.583601 6.077738 -0.944681 2.495861 4.800808 -13.472288 -17.927387 21.420532 -21.600237 -6.750925 16.691598 10.926924 0.485708 -7.685875 1.030790 -1.036071 13.208943 -15.022988 6.547090 15.962300 -23.223753 -3.391582 -5.419093 12.604659 1.016290 2.228127 -49.495110 8.927566 -119.046011 83.373388 -114.798972 -2.689663 -23.674562 0.970854 -0.002196 -0.007109 -0.000975 1.426873 -51.790337 -3.799757 101.780137 80.985121 108.418913 9.590087 -19.882952 -10.808065 0.002837 0.001469 0.001259
-0.159773 126.241678 -6.949446 173.830545 -16.831923 -3.311585 0.125428 13.443073 1.608015 0.003728 1.102369 0.128559 -0.021368 1.868039 0.225588 0.063051 12.143702 1.461108 -2.929831 12.468147 1.797077 -3.564025 -12.581924 2.601360 6.056487 -0.884482 2.437974 4.516693 -13.337640 -17.672289 21.141149 -22.592685 -6.997442 16.588116 10.780550 0.302381 -7.521871 1.024715 -0.977509 13.347594 -14.730350 6.344601 16.975403 -24.260121 -4.761388 -4.795815 11.667978 1.339602 2.261904 -49.510725 8.907076 -119.051114 83.365053 -114.795245 -2.694587 -23.675082 0.974983 -0.000395 -0.007334 -0.000175 1.454116 -51.796471 -3.822703 101.739365 80.988990 108.380511 9.575052 -19.886993 -10.797340 -0.003577 0.002228 -0.001588
-0.160247 126.240984 -6.949841 173.833962 -16.822921 -3.309893 0.127748 13.435213 1.605119 0.028329 1.106291 0.123273 -0.036712 1.864303 0.228811 0.142815 12.146855 1.442892 -2.989621 12.481772 1.842134 -3.596609 -12.574946 2.618472 5.950072 -0.830404 2.412423 4.205985 -13.202567 -17.413147 20.834088 -23.598206 -7.169078 16.459331 10.626994 0.041295 -7.430136 1.023876 -0.878091 13.456451 -14.450837 6.157765 17.971275 -25.203486 -6.175127 -4.164103 10.733096 1.684689 2.305349 -49.525689 8.879887 -119.067002 83.354300 -114.792496 -2.700364 -23.674022 0.981639 0.000359 -0.007805 0.000159 1.479644 -51.802189 -3.842972 101.692592 80.995003 108.343374 9.568562 -19.885928 -10.790684 -0.002779 0.001092 -0.001234
-0.160429 126.240465 -6.950859 173.835879 -16.820266 -3.309234 0.156278 13.435328 1.604212 0.029760 1.110536 0.123529 -0.031830 1.860171 0.226921 0.179353 12.153630 1.437488 -3.024181 12.482441 1.877952 -3.635553 -12.553132 2.651473 5.858866 -0.776689 2.374505 3.878780 -13.068464 -17.154308 20.507360 -24.605834 -7.259850 16.299874 10.447840 -0.322530 -7.315497 1.025816 -0.787711 13.525311 -14.185729 5.992618 18.959253 -26.053759 -7.626075 -3.521474 9.814128 2.071286 2.334047 -49.532096 8.859371 -119.087586 83.350186 -114.797699 -2.692837 -23.671640 0.956508 0.000289 -0.007453 0.000128 1.485183 -51.803983 -3.849071 101.679443 80.996820 108.332750 9.566445 -19.884824 -10.790240 -0.000090 -0.000688 -0.000040
-0.161652 126.239382 -6.950275 173.845784 -16.809124 -3.306450 0.176083 13.433109 1.600214 0.029482 1.110609 0.122163 -0.026018 1.860724 0.227254 0.197162 12.156246 1.433013 -3.038560 12.473173 1.908991 -3.661932 -12.552563 2.723482 5.775107 -0.721856 2.331353 3.542507 -12.933608 -16.895775 20.169850 -25.609026 -7.272408 16.103020 10.222914 -0.822704 -7.187191 1.034109 -0.703186 13.548881 -13.931980 5.854889 19.927941 -26.822165 -9.104717 -2.863788 8.922939 2.506394 2.345997 -49.543676 8.841702 -119.097374 83.347118 -114.802111 -2.691577 -23.672031 0.947075 -0.000084 -0.005588 -0.000037 1.484668 -51.814273 -3.860506 101.648101 80.998862 108.300165 9.565805 -19.881772 -10.787708 0.002368 -0.000435 0.001051
-0.163122 126.238330 -6.950021 173.855991 -16.800897 -3.302576 0.191582 13.433010 1.592905 0.017895 1.107103 0.125246 0.022640 1.877166 0.215885 0.182965 12.149429 1.439299 -3.045106 12.454047 1.940534 -3.677321 -12.571894 2.759351 5.688351 -0.666649 2.284495 3.204144 -12.798091 -16.635970 19.820638 -26.600621 -7.211711 15.853636 9.937079 -1.490713 -7.060720 1.046960 -0.622779 13.528627 -13.682418 5.747490 20.859653 -27.530199 -10.592949 -2.197988 8.064054 2.971442 2.348478 -49.551639 8.829833 -119.090092 83.346059 -114.799861 -2.690909 -23.670527 0.945898 -0.002814 -0.004791 -0.001249 1.494827 -51.820037 -3.880814 101.577036 80.995528 108.230449 9.556191 -19.880440 -10.777865 0.001248 0.001101 0.000554
-0.163971 126.237403 -6.950088 173.869746 -16.795437 -3.303445 0.207503 13.436987 1.590075 0.004234 1.102828 0.128352 0.034922 1.883094 0.216585 0.191798 12.152672 1.437297 -3.051568 12.432698 1.964960 -3.675621 -12.601012 2.792376 5.602460 -0.610043 2.229040 2.875176 -12.660800 -16.377714 19.466651 -27.573734 -7.089535 15.537288 9.592048 -2.331819 -6.936726 1.064834 -0.552260 13.475556 -13.427313 5.670946 21.747627 -28.206053 -12.081094 -1.550254 7.245968 3.432688 2.347270 -49.556850 8.827223 -119.071735 83.338277 -114.785903 -2.694647 -23.671803 0.954101 -0.003063 -0.004577 -0.001360 1.495758 -51.827010 -3.895873 101.580505 80.993294 108.236691 9.561958 -19.881020 -10.776367 0.003049 0.000416 0.001353
-0.164806 126.236500 -6.950236 173.882300 -16.790822 -3.304651 0.223128 13.443005 1.593767 0.018264 1.108924 0.127724 0.013843 1.876852 0.216618 0.193297 12.151628 1.437835 -3.062462 12.420161 1.975944 -3.650303 -12.638908 2.824529 5.519529 -0.547901 2.166033 2.566279 -12.520268 -16.123481 19.124713 -28.520435 -6.925562 15.164562 9.189172 -3.322984 -6.814788 1.091461 -0.494420 13.403570 -13.157745 5.626272 22.592043 -28.871946 -13.568887 -0.956222 6.479387 3.863276 2.347068 -49.561809 8.834748 -118.976540 83.309663 -114.693852 -2.691994 -23.675475 0.955095 0.002997 -0.004454 0.001330 1.488792 -51.834034 -3.903551 101.606382 80.991662 108.263616 9.542132 -19.887190 -10.762716 -0.001443 -0.000324 -0.000640
-0.165766 126.235636 -6.950427 173.893102 -16.786651 -3.305556 0.240951 13.453260 1.595291 -0.004899 1.096185 0.130495 0.021986 1.888215 0.214302 0.187697 12.141254 1.440386 -3.035907 12.402000 1.993895 -3.642730 -12.668005 2.845790 5.479424 -0.514472 2.133002 2.252108 -12.340819 -15.908207 18.797569 -29.428367 -6.732191 14.748192 8.719119 -4.444762 -6.698681 1.128452 -0.444918 13.323333 -12.869837 5.605651 23.392155 -29.536754 -15.050090 -0.443887 5.767792 4.250005 2.346014 -49.566730 8.839175 -118.988653 83.296825 -114.713599 -2.697493 -23.683245 0.959827 0.002231 -0.005081 0.000990 1.485593 -51.844685 -3.918436 101.645213 80.985160 108.305148 9.554233 -19.883698 -10.761526 -0.001093 -0.003617 -0.000485
-0.167077 126.234784 -6.950454 173.901012 -16.781796 -3.304981 0.236015 13.451357 1.592396 0.005503 1.104980 0.128024 0.010356 1.893263 0.216399 0.201776 12.143439 1.435554 -3.018982 12.371506 2.018539 -3.650917 -12.679247 2.852643 5.358563 -0.434207 2.056749 2.027990 -12.223694 -15.649832 18.466043 -30.290220 -6.507739 14.288263 8.180197 -5.671881 -6.609426 1.153345 -0.383730 13.232493 -12.563427 5.595337 24.144339 -30.205710 -16.506096 -0.024423 5.114736 4.583012 2.346066 -49.573215 8.841941 -119.021740 83.288483 -114.755269 -2.698321 -23.690687 0.958995 0.000951 -0.005818 0.000422 1.482141 -51.853990 -3.928470 101.674302 80.980227 108.334764 9.555572 -19.882124 -10.757559 -0.000882 -0.004281 -0.000392
-0.169311 126.234162 -6.951063 173.907515 -16.780478 -3.299988 0.232756 13.464197 1.585149 0.005318 1.106569 0.127844 0.004146 1.886468 0.217873 0.204469 12.160461 1.430953 -2.996005 12.336285 2.040092 -3.650637 -12.693390 2.855812 5.243139 -0.354735 1.979966 1.851910 -12.112047 -15.401585 18.091012 -31.105783 -6.238422 13.805941 7.586466 -6.945988 -6.516538 1.173637 -0.324916 13.121265 -12.241056 5.587835 24.839999 -30.877763 -17.913135 0.309790 4.518531 4.858212 2.348997 -49.574512 8.838633 -119.123433 83.281313 -114.875764 -2.695474 -23.710463 0.954779 -0.009828 -0.007329 -0.004362 1.484209 -51.858381 -3.943357 101.719126 80.974097 108.378935 9.556372 -19.886484 -10.758121 0.000754 -0.004857 0.000335
-0.169997 126.233575 -6.950651 173.913290 -16.775922 -3.305323 0.218224 13.472595 1.587617 0.004191 1.108217 0.127954 0.000149 1.894206 0.215520 0.169792 12.188292 1.430768 -2.935911 12.279461 2.051960 -3.615244 -12.727706 2.861968 5.200948 -0.312143 1.911391 1.704918 -11.983993 -15.183214 17.614943 -31.880198 -5.900237 13.346905 6.982929 -8.174509 -6.386363 1.171282 -0.278499 12.988273 -11.910700 5.582427 25.464539 -31.537812 -19.248361 0.585120 3.972585 5.080212 2.347427 -49.583010 8.852688 -119.138364 83.265731 -114.894709 -2.700182 -23.716996 0.960277 -0.009143 -0.008906 -0.004058 1.473613 -51.864544 -3.939373 101.760917 80.974848 108.423096 9.558541 -19.893025 -10.759818 0.003058 -0.002778 0.001357
-0.170552 126.233316 -6.950567 173.919750 -16.775596 -3.312624 0.200445 13.497282 1.584705 -0.001254 1.114811 0.127316 0.004646 1.886120 0.218044 0.159578 12.192754 1.431199 -2.899735 12.246043 2.068587 -3.554431 -12.772299 2.897114 5.137762 -0.242727 1.858377 1.611227 -11.861611 -14.977068 16.980181 -32.617009 -5.467150 12.937078 6.440138 -9.266451 -6.292779 1.189606 -0.230051 12.835568 -11.584267 5.581970 25.999739 -32.169235 -20.491283 0.829196 3.467284 5.255463 2.337381 -49.585826 8.871664 -119.155612 83.250678 -114.915377 -2.703206 -23.724449 0.962153 -0.007316 -0.010470 -0.003247 1.465211 -51.867186 -3.938937 101.824832 80.970117 108.493325 9.557721 -19.903603 -10.762094 0.003293 -0.001266 0.001462
-0.170864 126.233193 -6.950113 173.927133 -16.776303 -3.322581 0.194148 13.501612 1.591719 -0.012760 1.127332 0.124412 0.002680 1.890401 0.218399 0.146769 12.205564 1.430609 -2.865594 12.218276 2.083728 -3.535848 -12.780045 2.912765 5.086330 -0.175867 1.811679 1.565078 -11.743024 -14.778899 16.163177 -33.317330 -4.932626 12.560132 6.009697 -10.173687 -6.202310 1.199687 -0.183890 12.661641 -11.275091 5.589859 26.426945 -32.760980 -21.625834 1.061649 2.990675 5.396356 2.319759 -49.583939 8.911497 -119.088095 83.226264 -114.855653 -2.718272 -23.735135 0.961932 0.002281 -0.008790 0.001012 1.468567 -51.871419 -3.944218 101.863968 80.965752 108.545757 9.556127 -19.905877 -10.762435 0.003149 -0.002149 0.001398
-0.172042 126.233066 -6.949240 173.930579 -16.777752 -3.327152 0.179427 13.517093 1.588161 -0.008026 1.121898 0.126824 -0.005595 1.902860 0.216156 0.137233 12.221117 1.429293 -2.840602 12.197786 2.104251 -3.514280 -12.782231 2.929267 5.043053 -0.112536 1.772858 1.559342 -11.622209 -14.584812 15.177898 -33.981048 -4.312661 12.190370 5.701242 -10.891200 -6.119755 1.202000 -0.142866 12.470800 -10.992760 5.611801 26.730543 -33.308474 -22.636173 1.295665 2.540557 5.512538 2.307526 -49.581908 8.929530 -119.086070 83.219077 -114.861604 -2.725250 -23.742070 0.963014 0.001219 -0.007263 0.000541 1.471056 -51.871924 -3.947739 101.884251 80.962958 108.571940 9.556306 -19.909357 -10.763999 0.004654 -0.000945 0.002066
-0.171572 126.233599 -6.949471 173.925414 -16.790921 -3.337290 0.171496 13.542913 1.592370 -0.000226 1.117372 0.128886 -0.010953 1.912559 0.211721 0.130302 12.235475 1.427985 -2.819977 12.191543 2.128683 -3.495316 -12.776649 2.948895 5.004781 -0.047053 1.742793 1.583835 -11.496950 -14.391677 14.062112 -34.599380 -3.630775 11.824532 5.492395 -11.447399 -6.056014 1.203595 -0.109633 12.273543 -10.746467 5.651422 26.898890 -33.809961 -23.499264 1.533209 2.124566 5.586945 2.294042 -49.568117 8.957742 -119.050793 83.211631 -114.833463 -2.720696 -23.745357 0.958343 -0.000982 -0.006446 -0.000436 1.465194 -51.860082 -3.931769 101.907082 80.961265 108.595557 9.557787 -19.912921 -10.763500 0.003954 0.000163 0.001755
